<?xml version="1.0" encoding="utf-8"?>
<!-- Generator: Adobe Illustrator 24.3.0, SVG Export Plug-In . SVG Version: 6.00 Build 0)  -->
<svg version="1.1" id="Vrstva_1" xmlns="http://www.w3.org/2000/svg" xmlns:xlink="http://www.w3.org/1999/xlink" x="0px" y="0px"
	 viewBox="0 0 651.8 227.7" style="enable-background:new 0 0 651.8 227.7;" xml:space="preserve">
<style type="text/css">
	.st0{enable-background:new    ;}
</style>
<g id="logo_black_big_title">
	<polygon points="158,114.1 78.8,227.7 0,112.6 15.8,88.3 79.6,183.3 128.7,114 111.5,87.9 126.3,65.1 	"/>
	<polygon points="67.2,115.4 34.6,66.6 78.5,0 94,25.2 65.6,66.6 97.6,115.4 	"/>
	<g class="st0">
		<path d="M223.5,23.4h12.7v32.1c0,6.9-1.9,12.2-5.6,15.9c-3.7,3.7-9,5.6-16,5.6c-6.9,0-12.2-1.9-15.9-5.6c-3.7-3.7-5.6-9-5.6-15.9
			V23.4h12.7v31.8c0,3.4,0.7,6.1,2.2,7.9c1.5,1.8,3.7,2.7,6.5,2.7c2.9,0,5.1-0.9,6.6-2.7c1.5-1.8,2.2-4.4,2.2-7.9V23.4z M227.4,8.8
			L217,19.9h-9.4l5.7-11.1H227.4z"/>
	</g>
	<g class="st0">
		<path d="M252.9,23.4h12.7v34.6c0,6.3-1.5,10.9-4.4,13.9c-2.9,3-7.5,4.5-13.7,4.5c-2.3,0-4.2-0.2-5.7-0.7V65.1
			c1.1,0.2,2.2,0.4,3.3,0.4c2.8,0,4.9-0.7,6-2.2c1.2-1.4,1.8-4.1,1.8-8.1V23.4z"/>
		<path d="M314.1,23.4v10.7h-24.3V44h22.7v10.5h-22.7v10.6h24.9v10.7h-37.6V23.4H314.1z"/>
		<path d="M359.7,23.4v11L335.5,65v0.1h25.4v10.6h-40.6v-11l24.2-30.6V34h-23.1V23.4H359.7z"/>
	</g>
	<g class="st0">
		<path d="M369,75.8V23.4h18.5c9,0,15.9,2.3,20.7,6.8c4.8,4.5,7.2,11,7.2,19.4S413,64.4,408.2,69c-4.8,4.5-11.7,6.8-20.7,6.8H369z
			 M387.2,34.2h-5.6V65h5.6c10,0,15-5.1,15-15.4C402.2,39.3,397.2,34.2,387.2,34.2z"/>
	</g>
	<g class="st0">
		<path d="M211.2,85.3c6.6,0,11.7,1.5,15.2,4.4c3.5,2.9,5.3,7.2,5.3,12.8h-13.2c0-2.4-0.7-4.2-2-5.4c-1.3-1.3-3.3-1.9-5.8-1.9
			c-2.1,0-3.8,0.5-5,1.4c-1.3,0.9-1.9,2.1-1.9,3.6c0,1.7,0.7,2.9,2.2,3.7c1.4,0.8,4.2,1.7,8.3,2.8c2.5,0.6,4.4,1.1,5.9,1.6
			c1.5,0.5,3.2,1.2,5,2.1c1.8,0.9,3.3,1.9,4.3,3c1,1.1,1.9,2.5,2.6,4.2c0.7,1.7,1.1,3.7,1.1,5.9c0,5.1-1.9,9.2-5.8,12.2
			c-3.9,3-9.1,4.6-15.6,4.6c-6.9,0-12.2-1.6-16.1-4.8c-3.9-3.2-5.8-7.7-5.8-13.5h13.5c0,5.4,2.9,8.1,8.7,8.1c2.4,0,4.3-0.5,5.7-1.5
			c1.4-1,2.1-2.3,2.1-4c0-1.8-0.7-3.1-2-3.9c-1.3-0.8-4-1.7-8-2.7c-2.6-0.6-4.5-1.2-5.9-1.6c-1.4-0.4-3.1-1.1-5-2
			c-1.9-0.9-3.4-1.9-4.4-2.9c-1-1-1.9-2.4-2.6-4.1c-0.7-1.7-1.1-3.6-1.1-5.8c0-4.8,1.9-8.7,5.6-11.6C200,86.7,205,85.3,211.2,85.3z"
			/>
	</g>
	<g class="st0">
		<path d="M280.7,86.4v10.8h-16v41.6h-12.7V97.3h-16V86.4H280.7z"/>
	</g>
	<g class="st0">
		<path d="M287.1,138.8V86.4h21.3c12.8,0,19.3,5,19.3,14.9c0,3.2-0.9,5.9-2.6,8.1c-1.7,2.2-4.1,3.8-7.1,4.7v0.1
			c1.9,0.6,3.4,1.7,4.5,3.2c1.1,1.5,2.3,3.9,3.5,7.3l5.1,14h-13.7l-4-11.8c-0.9-2.7-2-4.6-3.3-5.7c-1.3-1.1-3.1-1.6-5.6-1.6h-4.8
			v19.1H287.1z M306.3,96.3h-6.5v13.8h7c5.5,0,8.2-2.4,8.2-7.1C315,98.5,312.1,96.3,306.3,96.3z"/>
	</g>
	<g class="st0">
		<path d="M375.1,86.4v10.7h-24.3v9.9h22.7v10.5h-22.7v10.6h24.9v10.7h-37.6V86.4H375.1z"/>
	</g>
	<g class="st0">
		<path d="M422.5,86.4v10.7h-24.3v9.9h22.7v10.5h-22.7v10.6h24.9v10.7h-37.6V86.4H422.5z"/>
	</g>
	<g class="st0">
		<path d="M472.2,86.4v10.8h-16v41.6h-12.7V97.3h-16V86.4H472.2z"/>
	</g>
	<g class="st0">
		<path d="M526.6,138.8l-3.3-11.1h-19l-3.4,11.1h-13.4l17.9-52.4h16.7l17.9,52.4H526.6z M507.5,117.3h12.7l-1.1-3.5
			c-2.1-7-3.9-13.3-5.3-19.1h-0.1c-1.5,6.1-3.2,12.4-5.1,19.1L507.5,117.3z"/>
	</g>
	<g class="st0">
		<path d="M545,138.8V86.4h21.3c12.8,0,19.3,5,19.3,14.9c0,3.2-0.9,5.9-2.6,8.1s-4.1,3.8-7.1,4.7v0.1c1.9,0.6,3.4,1.7,4.5,3.2
			c1.1,1.5,2.3,3.9,3.5,7.3l5.1,14h-13.7l-4-11.8c-0.9-2.7-2-4.6-3.3-5.7c-1.3-1.1-3.1-1.6-5.6-1.6h-4.8v19.1H545z M564.2,96.3h-6.5
			v13.8h7c5.5,0,8.2-2.4,8.2-7.1C572.9,98.5,570,96.3,564.2,96.3z"/>
	</g>
	<g class="st0">
		<path d="M634.2,86.4v10.8h-16v41.6h-12.7V97.3h-16V86.4H634.2z"/>
	</g>
	<g class="st0">
		<path d="M229.7,149.5v10.9h-23.3v12.1H228v10.8h-21.6v18.6h-12.7v-52.4H229.7z"/>
	</g>
	<g class="st0">
		<path d="M274.9,149.5v10.7h-24.3v9.9h22.7v10.5h-22.7v10.6h24.9v10.7h-37.6v-52.4H274.9z"/>
	</g>
	<g class="st0">
		<path d="M302.5,148.3c6.6,0,11.7,1.5,15.2,4.4c3.5,2.9,5.3,7.2,5.3,12.8h-13.2c0-2.4-0.7-4.2-2-5.4c-1.3-1.3-3.3-1.9-5.8-1.9
			c-2.1,0-3.8,0.5-5,1.4c-1.3,0.9-1.9,2.1-1.9,3.6c0,1.7,0.7,2.9,2.2,3.7c1.4,0.8,4.2,1.7,8.3,2.8c2.5,0.6,4.4,1.1,5.9,1.6
			c1.5,0.5,3.2,1.2,5,2.1c1.8,0.9,3.3,1.9,4.3,3c1,1.1,1.9,2.5,2.6,4.2c0.7,1.7,1.1,3.7,1.1,5.9c0,5.1-1.9,9.2-5.8,12.2
			c-3.9,3-9.1,4.6-15.6,4.6c-6.9,0-12.2-1.6-16.1-4.8c-3.9-3.2-5.8-7.7-5.8-13.5h13.5c0,5.4,2.9,8.1,8.7,8.1c2.4,0,4.3-0.5,5.7-1.5
			c1.4-1,2.1-2.3,2.1-4c0-1.8-0.7-3.1-2-3.9c-1.3-0.8-4-1.7-8-2.7c-2.6-0.6-4.5-1.2-5.9-1.6c-1.4-0.4-3.1-1.1-5-2
			c-1.9-0.9-3.4-1.9-4.4-2.9c-1-1-1.9-2.4-2.6-4.1c-0.7-1.7-1.1-3.6-1.1-5.8c0-4.8,1.9-8.7,5.6-11.6
			C291.3,149.8,296.2,148.3,302.5,148.3z"/>
	</g>
	<g class="st0">
		<path d="M372,149.5v10.8h-16v41.6h-12.7v-41.6h-16v-10.8H372z"/>
	</g>
	<g class="st0">
		<path d="M391,149.5v52.4h-12.7v-52.4H391z"/>
	</g>
	<g class="st0">
		<path d="M444.3,149.5l-15.7,52.4h-16.6l-15.7-52.4h13.3l5.7,20.2c2,6.8,3.7,13.6,5,20.6h0.1c1.2-6.1,2.8-13,5-20.6l5.7-20.2H444.3
			z"/>
	</g>
	<g class="st0">
		<path d="M481.4,201.9l-3.3-11.1h-19l-3.4,11.1h-13.4l17.9-52.4h16.7l17.9,52.4H481.4z M462.2,180.3H475l-1.1-3.5
			c-2.1-7-3.9-13.3-5.3-19.1h-0.1c-1.5,6.1-3.2,12.4-5.2,19.1L462.2,180.3z"/>
	</g>
	<g class="st0">
		<path d="M512.4,149.5V191h23.7v10.8h-36.4v-52.4H512.4z"/>
	</g>
</g>
</svg>
