<svg xmlns="http://www.w3.org/2000/svg" xmlns:xlink="http://www.w3.org/1999/xlink" viewBox="0 0 651.8 227.74"><defs><style>.cls-1{font-size:73.56px;font-family:NeueHaasUnica-ExtraBold, Neue Haas Unica;font-weight:800;}.cls-2{letter-spacing:-0.01em;}.cls-3{letter-spacing:0.01em;}.cls-4{letter-spacing:0em;}.cls-5{letter-spacing:0em;}.cls-6{letter-spacing:0.01em;}.cls-7{letter-spacing:-0.04em;}.cls-8{letter-spacing:-0.01em;}.cls-9{letter-spacing:-0.01em;}.cls-10{letter-spacing:0.01em;}.cls-11{letter-spacing:0.01em;}.cls-12{letter-spacing:0em;}.cls-13{letter-spacing:-0.01em;}.cls-14{letter-spacing:-0.03em;}</style><symbol id="logo_black_big_title" data-name="logo black big title" viewBox="0 0 651.8 227.74"><polygon points="126.25 65.12 111.5 87.85 128.69 113.96 79.6 183.34 15.83 88.25 0 112.58 78.77 227.74 158.03 114.09 126.25 65.12"/><polygon points="97.55 115.44 65.58 66.56 94 25.22 78.46 0 34.64 66.56 67.2 115.44 97.55 115.44"/><text class="cls-1" transform="translate(188.06 75.78)"><tspan class="cls-2">Ú</tspan><tspan class="cls-3" x="52.67" y="0">JEZ</tspan><tspan x="175.3" y="0">D </tspan></text><text class="cls-1" transform="translate(188.06 138.82)"><tspan class="cls-4">S</tspan><tspan class="cls-5" x="47.15" y="0">T</tspan><tspan class="cls-6" x="93.42" y="0">R</tspan><tspan class="cls-3" x="144.48" y="0">E</tspan><tspan class="cls-5" x="191.85" y="0">E</tspan><tspan class="cls-6" x="238.64" y="0">T</tspan><tspan class="cls-7" x="285.42" y="0"> </tspan><tspan class="cls-8" x="299.4" y="0">A</tspan><tspan class="cls-9" x="351.33" y="0">R</tspan><tspan x="400.7" y="0">T </tspan></text><text class="cls-1" transform="translate(188.06 201.86)"><tspan class="cls-10">F</tspan><tspan class="cls-11" x="44.21" y="0">E</tspan><tspan class="cls-4" x="91.29" y="0">S</tspan><tspan class="cls-12" x="138.44" y="0">T</tspan><tspan class="cls-13" x="184.64" y="0">I</tspan><tspan class="cls-14" x="207.81" y="0">V</tspan><tspan class="cls-13" x="254.16" y="0">A</tspan><tspan x="306.02" y="0">L</tspan></text></symbol></defs><g id="Vrstva_2" data-name="Vrstva 2"><g id="Vrstva_1-2" data-name="Vrstva 1"><use width="651.8" height="227.74" xlink:href="#logo_black_big_title"/></g></g></svg>